<?xml version="1.0" standalone="no"?><!DOCTYPE svg PUBLIC "-//W3C//DTD SVG 1.1//EN" "http://www.w3.org/Graphics/SVG/1.1/DTD/svg11.dtd"><svg t="1756347244286" class="icon" viewBox="0 0 1024 1024" version="1.1" xmlns="http://www.w3.org/2000/svg" p-id="6440" xmlns:xlink="http://www.w3.org/1999/xlink" width="200" height="200"><path d="M512 2.016C230.208 2.016 1.984 230.144 1.984 512c0 281.792 228.224 510.016 510.016 510.016 281.792 0 510.016-228.224 510.016-510.016C1022.016 230.208 793.28 1.984 512 1.984z m235.904 441.984c-0.992 4.608-3.616 10.816-7.2 19.104l-0.512 0.512c-21.6 45.76-77.28 135.488-77.28 135.488l-0.512-0.512-16.512 28.32h78.816l-150.4 199.872 33.984-136h-61.76l21.568-90.176a669.44 669.44 0 0 0-62.304 17.984s-32.992 19.104-94.784-37.12c0 0-41.696-37.088-17.504-45.76 10.304-4.096 49.984-8.8 81.408-12.928 42.176-5.696 68.48-8.768 68.48-8.768s-130.304 2.08-161.184-3.104c-30.912-4.608-70.08-56.704-78.304-102.016 0 0-12.896-24.704 27.808-12.896 40.192 11.808 209.184 45.792 209.184 45.792s-219.52-66.784-233.92-83.296c-14.4-16.48-42.784-89.6-39.168-134.496 0 0 1.504-11.296 12.896-8.192 0 0 161.792 74.208 272.512 114.4 111.296 41.184 207.584 61.792 194.688 113.792z" fill="#3296FA" p-id="6441"></path></svg>