<?xml version="1.0" standalone="no"?><!DOCTYPE svg PUBLIC "-//W3C//DTD SVG 1.1//EN" "http://www.w3.org/Graphics/SVG/1.1/DTD/svg11.dtd"><svg t="1756432952199" class="icon" viewBox="0 0 1024 1024" version="1.1" xmlns="http://www.w3.org/2000/svg" p-id="8608" xmlns:xlink="http://www.w3.org/1999/xlink" width="200" height="200"><path d="M796.444444 398.222222h-85.333333V256c0-110.933333-88.177778-199.111111-199.111111-199.111111s-199.111111 88.177778-199.111111 199.111111v142.222222H227.555556c-62.577778 0-113.777778 51.2-113.777778 113.777778v341.333333c0 62.577778 51.2 113.777778 113.777778 113.777778h568.888888c62.577778 0 113.777778-51.2 113.777778-113.777778V512c0-62.577778-51.2-113.777778-113.777778-113.777778zM369.777778 256c0-79.644444 62.577778-142.222222 142.222222-142.222222s142.222222 62.577778 142.222222 142.222222v142.222222H369.777778V256z m483.555555 597.333333c0 31.288889-25.6 56.888889-56.888889 56.888889H227.555556c-31.288889 0-56.888889-25.6-56.888889-56.888889V512c0-31.288889 25.6-56.888889 56.888889-56.888889h568.888888c31.288889 0 56.888889 25.6 56.888889 56.888889v341.333333z" p-id="8609"></path><path d="M512 568.888889c-17.066667 0-28.444444 11.377778-28.444444 28.444444v170.666667c0 17.066667 11.377778 28.444444 28.444444 28.444444s28.444444-11.377778 28.444444-28.444444v-170.666667c0-17.066667-11.377778-28.444444-28.444444-28.444444z"  p-id="8610"></path></svg>
