<?xml version="1.0" standalone="no"?><!DOCTYPE svg PUBLIC "-//W3C//DTD SVG 1.1//EN" "http://www.w3.org/Graphics/SVG/1.1/DTD/svg11.dtd"><svg t="1756432905138" class="icon" viewBox="0 0 1024 1024" version="1.1" xmlns="http://www.w3.org/2000/svg" p-id="6708" xmlns:xlink="http://www.w3.org/1999/xlink" width="200" height="200"><path d="M512 864.416l0.032-32-0.064 0.032 0.032 31.968zM736 64H288c-35.328 0-64 28.672-64 64v768c0 35.328 28.672 64 64 64h448c35.328 0 64-28.672 64-64V128c0-35.328-28.672-64-64-64zM512 896.416c-35.296 0-64-28.704-64-64s28.704-64 64-64 64 28.704 64 64-28.704 64-64 64zM704 704H320V160h384v544z" p-id="6709"></path></svg>
