<?xml version="1.0" standalone="no"?><!DOCTYPE svg PUBLIC "-//W3C//DTD SVG 1.1//EN" "http://www.w3.org/Graphics/SVG/1.1/DTD/svg11.dtd"><svg t="1756347013710" class="icon" viewBox="0 0 1024 1024" version="1.1" xmlns="http://www.w3.org/2000/svg" p-id="4589" xmlns:xlink="http://www.w3.org/1999/xlink" width="200" height="200"><path d="M512 0a512 512 0 1 0 512 512A512 512 0 0 0 512 0z" fill="#21ADF5" p-id="4590"></path><path d="M747.648 649.344c-10.752 5.504-27.392-7.04-43.392-30.464a128 128 0 0 1-43.648 67.072c23.296 8.704 38.4 22.528 38.4 38.4 0 25.6-40.96 47.104-91.392 47.104-45.44 0-83.328-17.28-89.6-39.552h-11.008c-7.04 22.528-44.672 39.552-89.6 39.552-50.432 0-91.392-20.992-91.392-47.104 0-15.872 15.104-29.696 38.4-38.4a128 128 0 0 1-43.648-67.072c-15.744 23.424-32.64 36.224-43.392 30.464-15.616-8.064-12.8-51.2 7.04-97.408 15.232-35.712 36.096-62.464 51.2-68.096a64 64 0 0 1 0-6.784 69.632 69.632 0 0 1 10.496-37.12v-2.432a37.632 37.632 0 0 1 4.224-17.408c3.84-93.312 64.768-167.552 162.944-167.552s159.104 74.24 162.944 167.552a37.632 37.632 0 0 1 4.224 17.408v2.432a69.632 69.632 0 0 1 10.496 37.12 59.008 59.008 0 0 1 0 6.784c15.872 5.632 36.48 32.384 51.2 68.096 19.072 45.696 22.144 89.6 6.528 97.408z" fill="#FFFFFF" p-id="4591"></path></svg>