<?xml version="1.0" standalone="no"?><!DOCTYPE svg PUBLIC "-//W3C//DTD SVG 1.1//EN" "http://www.w3.org/Graphics/SVG/1.1/DTD/svg11.dtd"><svg t="1756432879271" class="icon" viewBox="0 0 1024 1024" version="1.1" xmlns="http://www.w3.org/2000/svg" p-id="6561" xmlns:xlink="http://www.w3.org/1999/xlink" width="200" height="200"><path d="M785.656 62.712h55.945c67.403 0.674 119.304 52.574 119.978 120.652v109.867c0 16.851 0 35.05-22.243 35.05-20.221-0.674-20.221-17.525-20.895-33.702-0.674-34.376 2.696-69.425-2.696-103.801-10.11-66.729-50.552-80.21-101.779-84.254-27.635-2.022-55.271-0.674-82.906-0.674-16.851 0-36.398 3.37-36.398-22.243-0.674-26.287 20.221-19.547 35.05-20.221 18.872-1.348 37.071-0.673 55.944-0.674zM786.33 961.196h-64.033c-15.503 0-28.309-1.348-28.309-22.243 0-21.569 14.829-20.895 29.657-20.895 29.657 0 58.641 0.674 88.298 0 70.099-1.348 105.823-37.072 107.171-107.845 0.674-28.309 0.674-56.619 0-85.602 0-15.503 2.696-26.287 21.569-26.287s20.895 11.458 20.895 26.287c0 41.79 0.674 83.58 0 125.37-1.348 55.271-55.271 108.519-110.541 109.867-21.569 2.022-43.138 1.348-64.707 1.348zM63.095 234.59v-50.552c0-69.425 51.9-120.652 121.326-121.326h114.585c15.503 0 30.331 2.696 30.331 21.569s-15.503 21.569-30.331 20.895c-29.657 0-58.641-0.674-88.298 0-67.403 2.022-102.453 37.072-104.475 104.475a2047.708 2047.708 0 0 0 0 90.994c0 14.829-4.718 23.591-21.569 23.591s-21.569-8.762-21.569-23.591V234.59zM234.299 961.196h-50.552c-69.425 0-120.652-51.9-120.652-121.326V725.285c0-15.503 3.37-26.287 21.569-25.613 18.873 0 20.895 12.133 20.895 26.961 0 28.309-0.674 56.619 0 85.602 1.348 70.099 37.072 105.823 107.845 107.171 28.309 0.674 56.619 0.674 85.602 0 14.829 0 26.287 2.696 26.287 21.569s-11.459 21.569-26.287 21.569c-21.569-1.348-43.138-1.348-64.707-1.348zM729.615 640.145c-21.276-4.675-40.643-12.021-63.159-21.657-17.364-7.442-36.636-21.848-50.279-37.686-3.912-3.912-9.254-6.297-15.17-6.297-11.83 0-21.466 9.636-21.466 21.467 0 4.866 1.622 9.35 4.293 12.975 17.936 20.703 42.551 39.021 65.831 48.944 21.371 9.159 44.746 18.414 70.696 24.043 1.336 0.286 2.958 0.477 4.58 0.477 11.64-0.191 20.99-9.732 20.99-21.467-0.001-10.019-6.966-18.51-16.316-20.799zM352.758 676.676c97.601-23.852 245.291-60.011 252.16-271.814V402c0-24.138-9.636-45.986-25.378-62.014-17.173-17.65-41.216-28.527-67.739-28.527h-0.095c-26.714 0.095-50.852 11.449-67.739 29.576-16.696 17.936-21.276 41.788-24.52 59.152-13.548 70.792-59.152 105.615-139.771 106.569-11.735 0.095-21.085 9.636-21.085 21.371v0.286c0 11.64 9.541 21.085 21.18 21.085h0.382c99.796-1.145 164.195-51.329 181.273-141.393 3.148-16.41 6.106-29.672 13.834-37.972 9.064-9.827 22.039-15.933 36.445-15.933h0.572c14.311 0 27.286 5.915 36.636 15.456a45.895 45.895 0 0 1 13.262 32.343v1.431c-5.82 179.365-124.315 208.273-219.627 231.648-18.127 4.484-35.301 8.587-50.089 13.643-8.491 2.958-14.502 10.972-14.502 20.322 0 2.481 0.382 4.77 1.145 6.965 2.958 8.396 10.876 14.311 20.226 14.406a19.86 19.86 0 0 0 7.156-1.336c12.691-4.292 29.006-8.299 46.274-12.402z" p-id="6562"></path><path d="M743.258 578.789c-37.972-11.449-71.937-26.809-71.46-87.011 0.095-13.452 0.859-22.325 1.717-31.675 1.336-13.643 2.194-29.481 2.194-45.509 0-3.625 0-7.156-0.095-10.686-1.24-89.778-74.704-163.146-163.718-163.146-81.191 0-144.732 55.336-161.905 141.011-10.113 51.043-36.922 52.665-61.156 50.279-0.668-0.095-1.336-0.095-2.099-0.095-10.972 0-20.131 8.396-21.18 19.081-0.095 0.763-0.095 1.431-0.095 2.194 0 11.067 8.3 20.131 19.081 21.276 73.368 7.346 99.032-41.884 107.524-84.34 13.262-65.735 59.152-106.569 120.022-106.569 65.735 0 119.926 54.477 120.88 121.453 0.095 2.862 0.095 6.297 0.095 9.732 0 14.693-0.763 29.194-2.194 43.506-0.763 8.014-1.622 18.223-1.717 33.297-0.859 97.315 71.078 119.068 101.799 128.322 2.29 0.859 4.866 1.431 7.633 1.431 11.83 0 21.467-9.636 21.467-21.467-0.096-10.303-7.157-18.89-16.793-21.084z" p-id="6563"></path><path d="M750.891 507.711c-1.908-1.24-10.399-8.11-8.3-27.096 2.958-27.573 4.484-72.605 4.58-74.608v-0.668c0-129.658-105.52-235.178-235.178-235.178-95.884 0-183.849 60.202-218.959 149.884-4.102 10.59-7.251 23.088-10.018 34.251-1.527 6.011-3.244 12.88-4.198 15.456-0.954 2.29-1.431 4.961-1.431 7.728 0 8.968 5.534 16.696 13.452 19.845 2.481 0.954 5.152 1.526 7.919 1.526 8.968 0 16.696-5.534 19.845-13.452 2.004-5.247 3.721-12.021 5.915-20.799 2.481-9.827 5.247-20.99 8.396-29.099 28.717-73.368 100.654-122.693 179.174-122.693 105.997 0 192.149 86.152 192.34 192.054-0.191 4.389-1.717 46.368-4.389 71.078-5.057 47.131 25.283 69.838 39.88 72.891 1.336 0.286 2.958 0.477 4.58 0.477 11.64-0.191 21.085-9.732 21.085-21.467 0-9.35-6.011-17.364-14.502-20.226l-0.191 0.096z" p-id="6564"></path><path d="M291.507 620.195c4.198-0.859 8.587-1.717 13.071-2.671 83.004-16.696 222.012-44.746 228.69-213.139 0.095-0.763 0.095-1.622 0.095-2.481 0-11.83-9.636-21.467-21.467-21.467-11.83 0-21.467 9.636-21.467 21.467v0.859C485.086 537.477 375.845 559.516 295.99 575.64c-4.675 0.954-9.064 1.813-13.452 2.767-9.827 2.099-16.982 10.686-16.982 20.99 0 1.526 0.191 3.053 0.477 4.484 2.099 9.636 10.59 16.887 20.894 16.887h0.095c1.718-0.096 3.149-0.286 4.485-0.573zM708.053 716.461c-39.785-8.396-67.166-22.993-91.4-35.873-23.947-12.689-44.555-23.661-68.884-23.661-19.368 0-41.979 7.251-76.23 18.127-36.35 11.544-86.057 27.477-154.845 41.407-9.827 2.099-17.078 10.686-17.078 20.99 0 1.526 0.191 2.958 0.477 4.389 2.048 9.904 10.78 17.002 20.894 16.982 1.527 0 2.958-0.191 4.389-0.477 70.792-14.406 121.835-30.721 159.043-42.551 29.29-9.35 50.47-16.124 63.255-16.124 13.643 0 29.195 8.205 48.848 18.7 25.378 13.452 56.958 30.244 102.562 39.976 1.336 0.286 2.958 0.477 4.58 0.477 11.544-0.286 20.894-9.732 20.894-21.467 0.096-10.21-6.964-18.605-16.505-20.895z" p-id="6565"></path><path d="M668.268 776.663c-15.838-4.293-34.06-12.785-51.711-21.085-26.905-12.594-52.378-24.52-74.704-24.52-16.41 0-44.364 7.919-88.728 20.799-32.152 9.35-68.502 19.845-94.739 24.424-10.876 1.145-19.368 10.209-19.368 21.371 0 11.831 9.636 21.467 21.467 21.467 1.813 0 3.625-0.191 5.247-0.668 28.527-4.866 66.117-15.742 99.319-25.474 30.816-8.968 65.64-19.081 76.803-19.081 12.88 0 35.11 10.399 56.576 20.512 19.368 9.064 39.308 18.414 58.771 23.661 1.622 0.477 3.53 0.763 5.534 0.763 11.83 0 21.371-9.541 21.371-21.371 0-9.827-6.678-18.127-15.742-20.608 0 0-0.095-0.191-0.096-0.19z" p-id="6566"></path><path d="M612.933 828.468c-5.057-1.813-10.495-4.198-16.124-6.678-18.127-8.014-38.64-16.982-65.068-16.982-12.021 0-29.29 4.007-56.481 10.495-19.845 4.77-42.265 10.113-58.675 12.021-11.353 0.572-20.417 9.922-20.417 21.371 0 11.831 9.636 21.467 21.467 21.467 1.431 0 2.767-0.095 4.198-0.382 18.7-2.194 42.456-7.919 63.35-12.88 18.318-4.389 39.021-9.35 46.559-9.35 17.459 0 32.247 6.488 47.894 13.357 6.011 2.671 12.308 5.438 18.604 7.728 2.194 0.859 4.77 1.336 7.346 1.336 11.64-0.191 21.085-9.732 21.085-21.467 0-9.064-5.724-16.887-13.643-20.035h-0.095v-0.001z" p-id="6567"></path></svg>
