<?xml version="1.0" standalone="no"?><!DOCTYPE svg PUBLIC "-//W3C//DTD SVG 1.1//EN" "http://www.w3.org/Graphics/SVG/1.1/DTD/svg11.dtd"><svg t="1756347007791" class="icon" viewBox="0 0 1024 1024" version="1.1" xmlns="http://www.w3.org/2000/svg" p-id="4444" xmlns:xlink="http://www.w3.org/1999/xlink" width="200" height="200"><path d="M512 512m-512 0a512 512 0 1 0 1024 0 512 512 0 1 0-1024 0Z" fill="#1AA910" p-id="4445"></path><path d="M733.343289 751.149511l53.634844 34.781867-15.439644-57.799111c41.096533-31.493689 67.003733-77.459911 67.003733-128.648534 0-94.970311-89.144889-171.963733-199.111111-171.963733s-199.111111 76.993422-199.111111 171.963733c0 94.970311 89.144889 171.952356 199.111111 171.952356 33.962667 0 65.934222-7.338667 93.912178-20.286578z m-15.473778-191.965867a24.132267 24.132267 0 1 1 0-48.264533 24.132267 24.132267 0 0 1 0 48.264533z m-148.6848 0a24.132267 24.132267 0 1 1 0-48.264533 24.132267 24.132267 0 0 1 0 48.264533z" fill="#FFFFFF" p-id="4446"></path><path d="M425.3696 640.785067a265.4208 265.4208 0 0 1-103.139556-17.908623l-69.267911 54.044445 14.722845-83.820089c-50.983822-37.1712-83.364978-92.7744-83.364978-154.908444 0-111.934578 105.0624-202.672356 234.666667-202.672356 117.065956 0 214.107022 74.023822 231.788089 170.825956-3.072-0.113778-6.178133-0.159289-9.284267-0.159289-122.4704 0-221.752889 85.742933-221.752889 191.510755 0 14.813867 1.934222 29.240889 5.632 43.087645zM326.542222 399.075556a28.444444 28.444444 0 1 0 0-56.888889 28.444444 28.444444 0 0 0 0 56.888889z m192 0a28.444444 28.444444 0 1 0 0-56.888889 28.444444 28.444444 0 0 0 0 56.888889z" fill="#FFFFFF" p-id="4447"></path></svg>