<?xml version="1.0" standalone="no"?><!DOCTYPE svg PUBLIC "-//W3C//DTD SVG 1.1//EN" "http://www.w3.org/Graphics/SVG/1.1/DTD/svg11.dtd"><svg t="1770781854417" class="icon" viewBox="0 0 1024 1024" version="1.1" xmlns="http://www.w3.org/2000/svg" p-id="1745" xmlns:xlink="http://www.w3.org/1999/xlink" width="200" height="200"><path d="M838.949 657.189c7.606 0 14.555 4.388 18.066 11.41l163.694 322.633 1.901 5.12a22.455 22.455 0 0 1-2.34 16.091 20.26 20.26 0 0 1-17.555 10.46H20.48a20.334 20.334 0 0 1-17.554-10.46 22.528 22.528 0 0 1-0.512-21.211l163.693-322.706a20.334 20.334 0 0 1 18.067-11.264H303.25a2044.05 2044.05 0 0 0 179.127 223.67l29.257 31.233 29.184-31.232a2033.371 2033.371 0 0 0 179.127-223.744zM511.56 0a286.5 286.5 0 0 1 286.5 286.5c0 158.209-286.5 450.122-286.5 450.122S225.134 444.709 225.134 286.5A286.5 286.5 0 0 1 511.56 0z m0 143.214a143.214 143.214 0 1 0 0 286.5 143.214 143.214 0 0 0 0-286.5z" p-id="1746"></path></svg>