<svg t="1767374230743" viewBox="0 0 1024 1024" version="1.1" xmlns="http://www.w3.org/2000/svg" p-id="1997" width="200" height="200"><path d="M512 1002.057143c-21.942857 0-51.2-7.314286-73.142857-21.942857L138.971429 804.571429c-43.885714-29.257143-73.142857-73.142857-73.142858-124.342858V329.142857c0-51.2 29.257143-102.4 73.142858-124.342857L438.857143 43.885714c43.885714-21.942857 102.4-21.942857 146.285714 0L885.028571 219.428571c43.885714 29.257143 73.142857 73.142857 73.142858 124.342858v351.085714c0 51.2-29.257143 102.4-73.142858 124.342857L585.142857 980.114286c-21.942857 14.628571-51.2 21.942857-73.142857 21.942857zM512 95.085714c-14.628571 0-21.942857 0-36.571429 7.314286L175.542857 277.942857c-21.942857 14.628571-36.571429 36.571429-36.571428 58.514286v351.085714c0 21.942857 14.628571 51.2 36.571428 65.828572l299.885714 175.542857c21.942857 14.628571 51.2 14.628571 73.142858 0l299.885714-175.542857c21.942857-14.628571 36.571429-36.571429 36.571428-65.828572V336.457143c0-21.942857-14.628571-51.2-36.571428-65.828572L548.571429 102.4c-14.628571-7.314286-21.942857-7.314286-36.571429-7.314286z"  opacity=".6" p-id="1998"></path><path d="M512 804.571429c-21.942857 0-36.571429-14.628571-36.571429-36.571429V570.514286L307.2 431.542857c-21.942857-14.628571-21.942857-36.571429-7.314286-51.2 14.628571-14.628571 36.571429-21.942857 58.514286-7.314286L512 497.371429l160.914286-124.342858c14.628571-14.628571 43.885714-14.628571 58.514285 7.314286 14.628571 14.628571 14.628571 43.885714-7.314285 58.514286L548.571429 570.514286v197.485714c0 21.942857-14.628571 36.571429-36.571429 36.571429z"  p-id="1999"></path></svg>
