<?xml version="1.0" standalone="no"?><!DOCTYPE svg PUBLIC "-//W3C//DTD SVG 1.1//EN" "http://www.w3.org/Graphics/SVG/1.1/DTD/svg11.dtd"><svg class="icon" width="200px" height="200.00px" viewBox="0 0 1024 1024" version="1.1" xmlns="http://www.w3.org/2000/svg"><path d="M379.733333 896H149.333333c-12.8 0-21.333333-8.533333-21.333333-21.333333v-725.333334c0-12.8 8.533333-21.333333 21.333333-21.333333h614.4c12.8 0 21.333333 8.533333 21.333334 21.333333v281.6c0 21.333333 17.066667 42.666667 42.666666 42.666667s42.666667-17.066667 42.666667-42.666667V149.333333c0-59.733333-46.933333-106.666667-106.666667-106.666666H149.333333C89.6 42.666667 42.666667 89.6 42.666667 149.333333v725.333334C42.666667 934.4 89.6 981.333333 149.333333 981.333333h230.4c21.333333 0 42.666667-17.066667 42.666667-42.666666s-17.066667-42.666667-42.666667-42.666667z" fill="currentColor" /><path d="M379.733333 640c25.6 0 42.666667-17.066667 42.666667-42.666667V302.933333h93.866667c25.6 0 42.666667-17.066667 42.666666-42.666666s-17.066667-42.666667-42.666666-42.666667H243.2c-25.6 0-42.666667 17.066667-42.666667 42.666667s17.066667 42.666667 42.666667 42.666666h93.866667V597.333333c0 25.6 21.333333 42.666667 42.666666 42.666667zM418.133333 712.533333H243.2c-25.6 0-42.666667 17.066667-42.666667 42.666667s17.066667 42.666667 42.666667 42.666667h174.933333c25.6 0 42.666667-17.066667 42.666667-42.666667s-17.066667-42.666667-42.666667-42.666667zM537.6 499.2h128c25.6 0 42.666667-17.066667 42.666667-42.666667s-17.066667-42.666667-42.666667-42.666666h-128c-25.6 0-42.666667 17.066667-42.666667 42.666666s17.066667 42.666667 42.666667 42.666667zM563.2 640c25.6 0 42.666667-17.066667 42.666667-42.666667s-17.066667-42.666667-42.666667-42.666666h-25.6c-25.6 0-42.666667 17.066667-42.666667 42.666666s17.066667 42.666667 42.666667 42.666667h25.6zM968.533333 640l-85.333333-85.333333c-17.066667-17.066667-42.666667-17.066667-59.733333 0l-281.6 277.333333c-8.533333 8.533333-12.8 17.066667-12.8 29.866667V938.666667c0 25.6 17.066667 42.666667 42.666666 42.666666h98.133334c12.8 0 21.333333-4.266667 29.866666-12.8l268.8-268.8c8.533333-8.533333 12.8-17.066667 12.8-29.866666s-4.266667-21.333333-12.8-29.866667z m-315.733333 256h-38.4v-21.333333L853.333333 640l25.6 25.6-226.133333 230.4z" fill="currentColor" /></svg>
