<?xml version="1.0" standalone="no"?><!DOCTYPE svg PUBLIC "-//W3C//DTD SVG 1.1//EN" "http://www.w3.org/Graphics/SVG/1.1/DTD/svg11.dtd"><svg class="icon" width="200px" height="200.00px" viewBox="0 0 1024 1024" version="1.1" xmlns="http://www.w3.org/2000/svg"><path d="M169.152 769.472h685.696v64H169.152z" fill="currentColor" /><path d="M953.792 0H70.208A38.24 38.24 0 0 0 32 38.176v947.616A38.24 38.24 0 0 0 70.208 1024h883.584A38.24 38.24 0 0 0 992 985.792V38.176A38.24 38.24 0 0 0 953.792 0zM928 960H96V64h832z" fill="currentColor" /><path d="M201.152 255.84h96v256a32 32 0 0 0 64 0v-256h96a32 32 0 0 0 0-64h-256a32 32 0 0 0 0 64zM621.312 191.84h233.536v64h-233.536zM564.768 384.384h290.048v64h-290.048zM480 576.928h374.848v64H480z" fill="#currentColor" /></svg>
