<?xml version="1.0" standalone="no"?><!DOCTYPE svg PUBLIC "-//W3C//DTD SVG 1.1//EN" "http://www.w3.org/Graphics/SVG/1.1/DTD/svg11.dtd"><svg class="icon" width="200px" height="200.00px" viewBox="0 0 1024 1024" version="1.1" xmlns="http://www.w3.org/2000/svg"><path d="M964.266667 657.066667l-21.333334-12.8c-2.133333-2.133333-4.266667-4.266667-4.266666-8.533334v-14.933333c0-2.133333 2.133333-6.4 4.266666-8.533333l21.333334-12.8c21.333333-12.8 27.733333-38.4 14.933333-57.6l-42.666667-74.666667c-8.533333-12.8-21.333333-21.333333-36.266666-21.333333-6.4 0-14.933333 2.133333-21.333334 6.4l-21.333333 12.8c-2.133333 0-2.133333 2.133333-4.266667 2.133333s-2.133333 0-4.266666-2.133333l-12.8-6.4c-2.133333 0-4.266667-2.133333-4.266667-6.4V426.666667c0-23.466667-19.2-42.666667-42.666667-42.666667h-85.333333c-23.466667 0-42.666667 19.2-42.666667 42.666667v25.6c0 2.133333-2.133333 6.4-4.266666 8.533333l-12.8 6.4c-2.133333 0-2.133333 2.133333-4.266667 2.133333s-2.133333 0-4.266667-2.133333l-21.333333-12.8c-6.4-4.266667-14.933333-6.4-21.333333-6.4-14.933333 0-29.866667 8.533333-36.266667 21.333333l-42.666667 74.666667c-12.8 21.333333-4.266667 46.933333 14.933334 57.6l21.333333 12.8c2.133333 2.133333 4.266667 4.266667 4.266667 8.533333v14.933334c0 2.133333-2.133333 4.266667-4.266667 6.4l-21.333333 12.8c-21.333333 12.8-27.733333 38.4-14.933334 57.6l42.666667 74.666666c8.533333 12.8 21.333333 21.333333 36.266667 21.333334 6.4 0 14.933333-2.133333 21.333333-6.4l21.333333-12.8c2.133333 0 2.133333-2.133333 4.266667-2.133334s2.133333 0 4.266667 2.133334l12.8 6.4c2.133333 2.133333 4.266667 4.266667 4.266666 8.533333V832c0 23.466667 19.2 42.666667 42.666667 42.666667h85.333333c23.466667 0 42.666667-19.2 42.666667-42.666667v-25.6c0-2.133333 2.133333-6.4 4.266667-8.533333l12.8-6.4c2.133333 0 2.133333-2.133333 4.266666-2.133334s2.133333 0 4.266667 2.133334l21.333333 12.8c6.4 4.266667 14.933333 6.4 21.333334 6.4 14.933333 0 29.866667-8.533333 36.266666-21.333334l42.666667-74.666666c12.8-21.333333 4.266667-46.933333-14.933333-57.6z m-53.333334-100.266667c-23.466667 12.8-36.266667 38.4-36.266666 64v12.8c0 25.6 12.8 51.2 36.266666 64l-19.2 38.4-2.133333-2.133333c-10.666667-6.4-23.466667-10.666667-36.266667-10.666667s-27.733333 4.266667-38.4 10.666667c-2.133333 2.133333-4.266667 2.133333-8.533333 4.266666-23.466667 12.8-38.4 36.266667-38.4 64v8.533334h-42.666667v-4.266667c0-27.733333-14.933333-51.2-38.4-64-2.133333-2.133333-6.4-2.133333-8.533333-4.266667-10.666667-6.4-25.6-10.666667-38.4-10.666666-12.8 0-25.6 4.266667-36.266667 10.666666l-2.133333 2.133334-21.333333-36.266667 2.133333-2.133333c23.466667-12.8 36.266667-38.4 36.266667-64v-14.933334c0-25.6-12.8-51.2-36.266667-64l-2.133333-2.133333 21.333333-36.266667 2.133333 2.133334c10.666667 6.4 23.466667 10.666667 36.266667 10.666666 12.8 0 27.733333-4.266667 38.4-10.666666 2.133333-2.133333 4.266667-2.133333 8.533333-4.266667 23.466667-12.8 38.4-36.266667 38.4-64V448h42.666667v4.266667c0 27.733333 14.933333 51.2 38.4 64 2.133333 2.133333 6.4 2.133333 8.533333 4.266666 10.666667 6.4 25.6 10.666667 38.4 10.666667s25.6-4.266667 36.266667-10.666667l2.133333-2.133333 19.2 38.4zM746.666667 544c-46.933333 0-85.333333 38.4-85.333334 85.333333s38.4 85.333333 85.333334 85.333334 85.333333-38.4 85.333333-85.333334-38.4-85.333333-85.333333-85.333333z m0 106.666667c-12.8 0-21.333333-8.533333-21.333334-21.333334s8.533333-21.333333 21.333334-21.333333 21.333333 8.533333 21.333333 21.333333-8.533333 21.333333-21.333333 21.333334zM501.333333 814.933333c-6.4-8.533333-17.066667-12.8-29.866666-12.8-32 6.4-68.266667 8.533333-108.8 8.533334-121.6 0-206.933333-23.466667-243.2-42.666667l-12.8-8.533333V661.333333c57.6 25.6 151.466667 42.666667 256 42.666667 19.2 0 38.4 0 57.6-2.133333 14.933333 0 25.6-10.666667 27.733333-25.6 4.266667-21.333333-12.8-40.533333-32-38.4-17.066667 2.133333-34.133333 2.133333-53.333333 2.133333-121.6 0-206.933333-23.466667-243.2-42.666667l-12.8-8.533333V490.666667c57.6 25.6 151.466667 42.666667 256 42.666666 23.466667 0 49.066667 0 70.4-2.133333 10.666667 0 19.2-6.4 25.6-17.066667 12.8-21.333333-4.266667-49.066667-29.866667-46.933333-21.333333 2.133333-42.666667 2.133333-66.133333 2.133333-121.6 0-206.933333-23.466667-243.2-42.666666l-12.8-8.533334V320c57.6 25.6 151.466667 42.666667 256 42.666667s198.4-17.066667 256-42.666667v10.666667c0 17.066667 14.933333 32 32 32s32-14.933333 32-32V256c0-59.733333-142.933333-106.666667-320-106.666667S42.666667 196.266667 42.666667 256v512c0 59.733333 142.933333 106.666667 320 106.666667 42.666667 0 81.066667-2.133333 117.333333-8.533334 23.466667-2.133333 36.266667-29.866667 21.333333-51.2zM362.666667 213.333333c121.6 0 206.933333 23.466667 243.2 42.666667-36.266667 19.2-119.466667 42.666667-243.2 42.666667s-206.933333-23.466667-243.2-42.666667c36.266667-19.2 121.6-42.666667 243.2-42.666667z" /></svg>