<?xml version="1.0" standalone="no"?><!DOCTYPE svg PUBLIC "-//W3C//DTD SVG 1.1//EN" "http://www.w3.org/Graphics/SVG/1.1/DTD/svg11.dtd"><svg class="icon" width="200px" height="200.00px" viewBox="0 0 1024 1024" version="1.1" xmlns="http://www.w3.org/2000/svg"><path d="M428.8 953.6c-211.2 0-377.6-70.4-377.6-160V691.2c70.4 64 211.2 115.2 377.6 115.2 44.8 0 89.6-6.4 128-6.4 0-12.8 6.4-32 6.4-44.8-44.8 6.4-89.6 12.8-134.4 12.8C217.6 768 51.2 697.6 51.2 608V505.6c70.4 64 211.2 115.2 377.6 115.2s313.6-44.8 377.6-115.2v51.2h44.8v-384C819.2 76.8 640 6.4 428.8 6.4S38.4 76.8 6.4 172.8V832c32 96 204.8 172.8 422.4 172.8 64 0 128-6.4 185.6-19.2-6.4-12.8-19.2-25.6-25.6-38.4-51.2 6.4-102.4 6.4-160 6.4zM428.8 44.8c211.2 0 377.6 70.4 377.6 160S640 364.8 428.8 364.8s-384-70.4-384-160S217.6 44.8 428.8 44.8z m-384 364.8V294.4c70.4 64 211.2 115.2 377.6 115.2s313.6-44.8 377.6-115.2v128C806.4 505.6 640 576 428.8 576s-384-70.4-384-160v-6.4z m761.6 185.6c-115.2 0-211.2 96-211.2 211.2 0 115.2 96 211.2 211.2 211.2 115.2 0 211.2-96 211.2-211.2 0-115.2-96-211.2-211.2-211.2z m0 384c-96 0-166.4-76.8-166.4-166.4s76.8-166.4 166.4-166.4 166.4 76.8 166.4 166.4-70.4 166.4-166.4 166.4zM832 704h-44.8v83.2H704v44.8h83.2v83.2h44.8V832h83.2v-44.8H832V704z" fill="currentColor" /></svg>
