<?xml version="1.0" standalone="no"?><!DOCTYPE svg PUBLIC "-//W3C//DTD SVG 1.1//EN" "http://www.w3.org/Graphics/SVG/1.1/DTD/svg11.dtd"><svg t="1756568789624" class="icon" viewBox="0 0 1024 1024" version="1.1" xmlns="http://www.w3.org/2000/svg" p-id="11112" xmlns:xlink="http://www.w3.org/1999/xlink" width="200" height="200"><path d="M277.9136 805.6832h546.4576c28.2624 0 51.2-22.9376 51.2-51.2V107.52c0-28.2624-22.9376-51.2-51.2-51.2H199.6288c-28.2624 0-51.2 22.9376-51.2 51.2v807.8848c0 28.8768 26.7776 52.2752 59.8528 52.2752h607.4368c29.1328 0 53.4016-18.2272 58.7264-42.2912H298.0352c-33.0752 0-59.8528-23.3984-59.8528-52.2752v-18.2784c0.0512-22.6816 16.5888-41.9328 39.7312-49.152z m447.8464-151.9616h-312.32c-16.9472 0-30.72-13.7728-30.72-30.72s13.7728-30.72 30.72-30.72h312.32c16.9472 0 30.72 13.7728 30.72 30.72s-13.7728 30.72-30.72 30.72z m0-192h-312.32c-16.9472 0-30.72-13.7728-30.72-30.72s13.7728-30.72 30.72-30.72h312.32c16.9472 0 30.72 13.7728 30.72 30.72s-13.7728 30.72-30.72 30.72z m-314.88-253.44h312.32c16.9472 0 30.72 13.7728 30.72 30.72s-13.7728 30.72-30.72 30.72h-312.32c-16.9472 0-30.72-13.7728-30.72-30.72s13.7728-30.72 30.72-30.72z m-110.08 253.44c-16.9472 0-30.72-13.7728-30.72-30.72s13.7728-30.72 30.72-30.72 30.72 13.7728 30.72 30.72-13.7728 30.72-30.72 30.72z m30.72 161.28c0 16.9472-13.7728 30.72-30.72 30.72s-30.72-13.7728-30.72-30.72 13.7728-30.72 30.72-30.72 30.72 13.7216 30.72 30.72z m-33.28-414.72c16.9472 0 30.72 13.7728 30.72 30.72s-13.7728 30.72-30.72 30.72-30.72-13.7728-30.72-30.72 13.7728-30.72 30.72-30.72z" fill="currentColor" p-id="11113"></path></svg>
