<?xml version="1.0" standalone="no"?><!DOCTYPE svg PUBLIC "-//W3C//DTD SVG 1.1//EN" "http://www.w3.org/Graphics/SVG/1.1/DTD/svg11.dtd"><svg t="1770788787723" class="icon" viewBox="0 0 1024 1024" version="1.1" xmlns="http://www.w3.org/2000/svg" p-id="10441" xmlns:xlink="http://www.w3.org/1999/xlink" width="200" height="200"><path d="M366.297872 476.595745a34.042553 34.042553 0 0 1 34.042554 34.042553v272.340425a34.042553 34.042553 0 0 1-34.042554 34.042554h-272.340425A34.042553 34.042553 0 0 1 59.914894 782.978723v-272.340425a34.042553 34.042553 0 0 1 34.042553-34.042553h272.340425zM332.255319 544.680851H128v204.255319H332.255319V544.680851zM434.382979 0A34.042553 34.042553 0 0 1 468.425532 34.042553v340.425532A34.042553 34.042553 0 0 1 434.382979 408.510638H93.957447A34.042553 34.042553 0 0 1 59.914894 374.468085V34.042553A34.042553 34.042553 0 0 1 93.957447 0h340.425532zM128 68.085106v272.340426h272.340426v-272.340426h-272.340426zM842.893617 0A34.042553 34.042553 0 0 1 876.93617 34.042553v272.340426a34.042553 34.042553 0 0 1-34.042553 34.042553h-272.340426a34.042553 34.042553 0 0 1-34.042553-34.042553v-272.340426A34.042553 34.042553 0 0 1 570.553191 0h272.340426zM604.595745 68.085106V272.340426h204.255319V68.085106H604.595745zM937.548255 941.546213H494.962383a26.411574 26.411574 0 0 1-21.253447-10.643064 26.988936 26.988936 0 0 1-4.24851-23.404936l21.607489-74.828256c0.354043-1.067574 0.708085-2.129702 1.236425-3.191829 1.41617-3.19183 2.124255-6.563404 2.124256-10.109277v-189.205787C494.434043 507.991149 593.794723 408.510638 715.819574 408.510638c122.553191 0 222.262468 99.480511 222.262469 221.652426v189.205787c0 3.545872 0.708085 6.917447 2.124255 10.109277 0.533787 1.062128 0.88783 2.124255 1.241872 3.191829l21.60749 74.828256a26.988936 26.988936 0 0 1-4.248511 23.404936 26.662128 26.662128 0 0 1-21.253447 10.643064z m-407.339574-53.198979h371.918979l-11.334809-39.364085a76.78366 76.78366 0 0 1-5.844425-29.614298v-189.205787c0-92.917106-75.803234-168.453447-169.134298-168.453447-92.802723 0-168.426213 75.53634-168.426213 168.453447v189.205787c0 10.283574-1.949957 20.213106-5.844426 29.614298l-11.334808 39.364085zM849.702128 653.927489c0-92.214468-51.537702-156.759149-125.211234-156.759149a26.547745 26.547745 0 0 0-26.564085 26.602213 26.547745 26.547745 0 0 0 26.564085 26.596766c56.84834 0 72.083064 65.078468 72.083063 103.56017a26.547745 26.547745 0 0 0 26.564086 26.596766 26.547745 26.547745 0 0 0 26.564085-26.596766z m-42.147405 343.475745a26.547745 26.547745 0 0 0-26.569532-26.602213h-129.459744a26.547745 26.547745 0 0 0-26.569532 26.602213 26.547745 26.547745 0 0 0 26.569532 26.596766h129.459744a26.547745 26.547745 0 0 0 26.569532-26.596766z" p-id="10442"></path></svg>