<?xml version="1.0" standalone="no"?><!DOCTYPE svg PUBLIC "-//W3C//DTD SVG 1.1//EN" "http://www.w3.org/Graphics/SVG/1.1/DTD/svg11.dtd"><svg class="icon" width="200px" height="200.00px" viewBox="0 0 1024 1024" version="1.1" xmlns="http://www.w3.org/2000/svg"><path d="M128.205185 725.325208a42.666542 42.666542 0 0 1 42.367545 37.674596l0.298997 4.991946v170.665167h355.366182a42.666542 42.666542 0 0 1 42.367545 37.673595l0.298997 4.991946a42.666542 42.666542 0 0 1-37.716595 42.367545l-4.906947 0.298997H149.537956a63.999313 63.999313 0 0 1-63.700316-57.855378L85.538643 959.989688V767.99175A42.666542 42.666542 0 0 1 128.205185 725.325208zM874.864164 0a63.999313 63.999313 0 0 1 63.700316 57.855379l0.298997 6.143934v443.515235a42.666542 42.666542 0 0 1-85.034087 4.991947l-0.298997-4.991947V85.332083H170.871727v85.333084a42.666542 42.666542 0 0 1-37.674596 42.367545l-4.991946 0.297996a42.666542 42.666542 0 0 1-42.367545-37.673595l-0.298997-4.991946V63.999313A63.999313 63.999313 0 0 1 143.395022 0.298997L149.537956 0h725.326208z m-831.991062 255.99725h170.664166a42.666542 42.666542 0 1 1 0 85.332083H42.873102a42.666542 42.666542 0 1 1 0-85.332083zM128.205185 127.998625a42.666542 42.666542 0 0 1 42.666542 42.666542V767.99175a42.666542 42.666542 0 0 1-85.333084 0V170.665167A42.666542 42.666542 0 0 1 128.205185 127.998625zM42.873102 426.662417h170.664166a42.666542 42.666542 0 0 1 0 85.332083H42.873102a42.666542 42.666542 0 0 1 0-85.332083z m0 170.664166h170.664166a42.666542 42.666542 0 0 1 0 85.333084H42.873102a42.666542 42.666542 0 0 1 0-85.333084z m500.175627-426.661416a170.665167 170.665167 0 1 0 0 341.329333 170.665167 170.665167 0 0 0 0-341.329333z m0 85.332083a85.332083 85.332083 0 1 1 0 170.665167 85.332083 85.332083 0 0 1 0-170.665167z m22.569757 341.329333a42.666542 42.666542 0 0 1 4.949947 85.034087l-4.949947 0.298997h-93.012001c-38.569586 0-74.409201 16.425824-99.624929 44.713519a132.691575 132.691575 0 0 0-31.999657 67.285278 42.666542 42.666542 0 1 1-84.223095-13.525855 218.024658 218.024658 0 0 1 52.479436-110.504813 218.152657 218.152657 0 0 1 152.318364-73.002216l11.092881-0.298997h92.969001z m159.913282 213.331709a63.999313 63.999313 0 1 0 127.998625 0 63.999313 63.999313 0 1 0-127.998625 0z m185.726005-213.331709H668.57238L548.595669 810.658292 668.57238 1023.989h242.685393l112.724789-213.330708L911.256773 597.326583z m-51.412447 85.333084l67.669273 127.998625-67.712273 127.998625H718.534844l-72.020227-127.998625 71.977227-127.998625h141.353482z" fill="currentColor" /></svg>
