<?xml version="1.0" standalone="no"?><!DOCTYPE svg PUBLIC "-//W3C//DTD SVG 1.1//EN" "http://www.w3.org/Graphics/SVG/1.1/DTD/svg11.dtd"><svg t="1756568961977" class="icon" viewBox="0 0 1024 1024" version="1.1" xmlns="http://www.w3.org/2000/svg" p-id="12097" xmlns:xlink="http://www.w3.org/1999/xlink" width="200" height="200"><path d="M895.268571 137.508571H703.707429V68.754286C703.707429 32.036571 675.84 0 639.268571 0h-256c-35.108571 0-64.365714 30.573714-64.365714 68.754286v68.754285h-190.171428C58.514286 137.508571 1.462857 198.656 1.462857 273.554286v171.154285H1024V273.554286c0-76.361143-58.514286-136.045714-128.731429-136.045715z m-512 0V102.4c0-18.285714 14.628571-33.572571 32.182858-33.572571h191.707428c17.554286 0 32.109714 15.286857 32.109714 33.572571l1.462858 35.108571H383.268571z m193.097143 408.137143A67.730286 67.730286 0 0 0 567.588571 512h-109.714285a63.634286 63.634286 0 0 0-8.777143 33.645714c-1.389714 38.180571 27.867429 68.754286 62.902857 68.754286s64.365714-30.573714 64.365714-68.754286z m0 0" p-id="12098"></path><path d="M639.268571 545.645714c0 74.825143-57.051429 135.972571-127.268571 135.972572S384.731429 620.544 384.731429 545.645714c0-12.214857 1.462857-22.966857 4.388571-33.645714H0v376.027429C0 962.852571 57.051429 1024 127.268571 1024h768c70.144 0 127.268571-61.147429 127.268572-135.972571V512h-387.657143c2.998857 10.678857 4.388571 22.893714 4.388571 33.645714z m0 0" p-id="12099"></path></svg>