<svg t="1756570244693" class="icon" viewBox="0 0 1024 1024" version="1.1" xmlns="http://www.w3.org/2000/svg" p-id="34089" width="200" height="200"><path d="M682.225853 470.765979c8.511293-8.511293 21.278232-17.022585 29.789524-29.789524 51.067756-59.579048 72.345987-136.180682 59.579048-217.037962-17.022585-114.902451-106.391158-204.271023-221.293608-221.293609-93.624219-12.766939-182.992792 21.278232-242.57184 89.368573-46.812109 63.834695-72.345987 140.436328-59.579049 217.037962 12.766939 63.834695 42.556463 119.158097 93.624219 161.71456-148.947621 51.067756-255.338779 191.504084-255.338779 353.218644v93.624219C86.435368 977.187891 133.247478 1024 192.826526 1024h638.346948c59.579048 0 106.391158-46.812109 106.391158-106.391158v-93.624219c0-161.71456-106.391158-302.150888-255.338779-353.218644zM375.819318 151.592505c34.045171-42.556463 85.112926-63.834695 136.180682-63.834694 8.511293 0 17.022585 0 29.789524 4.255646 76.601634 12.766939 136.180682 76.601634 148.947621 148.947621 8.511293 55.323402-8.511293 106.391158-42.556463 144.691975-42.556463 46.812109-102.135512 72.345987-165.970206 59.579048-76.601634-12.766939-136.180682-76.601634-148.947621-148.947621-8.511293-51.067756 8.511293-106.391158 42.556463-144.691975z m476.632387 766.016337c0 12.766939-8.511293 21.278232-21.278231 21.278232h-638.346948c-12.766939 0-21.278232-8.511293-21.278231-21.278232v-93.624219c0-161.71456 131.925036-289.383949 289.383949-289.383949h97.879865c161.71456 0 289.383949 131.925036 289.38395 289.383949v93.624219z" fill="currentColor" p-id="34090"></path></svg>
